<?xml version="1.0" encoding="UTF-8" standalone="no"?>
<svg xmlns:svg="http://www.w3.org/2000/svg" xmlns="http://www.w3.org/2000/svg" version="1.1" width="2000px" height="2000px" viewBox="0 0 2000 2000">
	<g arial-label="SSO">
		<!-- Font used: Berlin Sans FB Demi -->
		<path d="m 795,262 q 0,54 -45,92 -39,34 -97,43 -2,0 -3,0 -6,0 -27,-37 -21,-37 -21,-45 0,-2 3,-3 38,-8 51,-14 27,-13 27,-40 0,-17 -18,-38 -31,-36 -34,-40 -18,-27 -18,-61 0,-48 44,-80 36,-26 90,-34 2,-0 4,-0 3,0 6,6 6,19 32,70 0,1 0,2 0,4 -4,4 -2,0 -7,-0 -5,-0 -7,-0 -19,0 -33,8 -17,10 -17,28 0,16 19,39 33,42 35,44 18,29 18,58 z" />
		<path d="m 1021,262 q 0,54 -45,92 -39,34 -97,43 -2,0 -3,0 -6,0 -27,-37 -21,-37 -21,-45 0,-2 3,-3 38,-8 51,-14 27,-13 27,-40 0,-17 -18,-38 -31,-36 -34,-40 -18,-27 -18,-61 0,-48 44,-80 36,-26 90,-34 2,-0 4,-0 3,0 6,6 6,19 32,70 0,1 0,2 0,4 -4,4 -2,0 -7,-0 -5,-0 -7,-0 -19,0 -33,8 -17,10 -17,28 0,16 19,39 33,42 35,44 18,29 18,58 z" />
		<path d="m 1434,198 q 0,83 -52,139 -54,56 -136,56 -82,0 -136,-57 -53,-56 -53,-138 0,-82 53,-139 54,-57 136,-57 81,0 136,57 53,56 53,139 z m -100,-0 q 0,-39 -24,-67 -25,-29 -64,-29 -37,0 -63,30 -25,29 -25,67 0,40 23,67 25,28 65,28 37,0 63,-30 25,-28 25,-66 z" />
	</g>
	<path d="M 560 480 C 480 480 440 520 440 600 V 1600 C 440 1680 480 1720 560 1720 H 1440 C 1520 1720 1560 1680 1560 1600 V 1440 A 340 340 0 0 0 1560 760 V 600 C 1560 520 1520 480 1440 480 H 480 Z M 1560 900 A 200 200 0 0 1 1560 1300 Z" />
	<path d="M 0 1800 H 2000 Q 2000 2000 1000 2000 Q 0 2000 0 1800 Z" />
</svg>
